<svg xmlns="http://www.w3.org/2000/svg" viewBox="0 0 49.729 47.984">
  <defs></defs>
  <g transform="matrix(1, 0, 0, 1, 19.658015, 0.494327)">
    <g id="SvgjsG2051" transform="matrix(0.46621, 0, 0, 0.46621, -18.545121, -40.785538)" class="fill-primary">
      <g xmlns="http://www.w3.org/2000/svg" transform="translate(0,-952.36218)">
        <path style="text-indent: 0px; text-transform: none; direction: ltr; baseline-shift: baseline; stroke: rgb(0, 0, 0); stroke-miterlimit: 15.78; stroke-width: 6.43487px;" d="M 13.541 1099.475 C 9.38 1099.475 6 1102.867 6 1107.044 C 6 1111.221 9.38 1114.649 13.541 1114.649 C 14.354 1114.649 15.155 1114.513 15.924 1114.257 C 28.205 1133.156 52.574 1137.517 70.417 1127.289 C 70.938 1126.989 71.142 1126.241 70.844 1125.718 C 70.546 1125.194 69.8 1124.99 69.279 1125.289 C 52.506 1134.904 29.608 1130.918 17.951 1113.185 C 19.846 1111.804 21.082 1109.566 21.082 1107.044 C 21.082 1102.867 17.702 1099.475 13.541 1099.475 Z" fill-opacity="1" fill-rule="evenodd" visibility="visible" display="inline" overflow="visible"></path>
        <path style="text-indent: 0px; text-transform: none; direction: ltr; baseline-shift: baseline; stroke: rgb(0, 0, 0); stroke-miterlimit: 15.78; stroke-width: 6.43487px;" d="M 70.417 1056.88 C 69.466 1057.001 69.18 1058.57 70.026 1059.022 C 83.456 1067.241 90.955 1083.324 87.669 1099.582 C 87.276 1099.515 86.867 1099.475 86.459 1099.475 C 82.298 1099.475 78.918 1102.867 78.918 1107.044 C 78.918 1111.221 82.298 1114.649 86.459 1114.649 C 90.62 1114.649 94 1111.221 94 1107.044 C 94 1104.093 92.313 1101.534 89.838 1100.296 C 93.446 1083.005 85.507 1065.814 71.2 1057.059 C 71.01 1056.937 70.784 1056.874 70.559 1056.88 C 70.511 1056.877 70.465 1056.877 70.417 1056.88 L 70.417 1056.88 Z" fill-opacity="1" fill-rule="evenodd" visibility="visible" display="inline" overflow="visible"></path>
        <path style="text-indent: 0px; text-transform: none; direction: ltr; baseline-shift: baseline; stroke: rgb(0, 0, 0); stroke-miterlimit: 15.78; stroke-width: 6.43487px;" d="M 50 1044.669 C 45.988 1044.669 42.726 1047.839 42.495 1051.81 C 25.298 1055.004 12.767 1068.663 9.913 1084.872 C 9.726 1085.731 10.536 1086.472 11.371 1086.204 C 11.791 1086.07 12.096 1085.704 12.154 1085.265 C 14.835 1070.04 26.542 1057.194 42.672 1054.095 C 43.499 1057.38 46.475 1059.808 50 1059.808 C 54.161 1059.808 57.541 1056.416 57.541 1052.238 C 57.541 1048.061 54.161 1044.669 50 1044.669 Z" fill-opacity="1" fill-rule="evenodd" visibility="visible" display="inline" overflow="visible"></path>
      </g>
    </g>
  </g>
</svg>